# xmcd
#
# Track frame offsets: 
#        150
#        15471
#        34832
#        56111
#        80403
#        93593
#        112525
#        124575
#        128287
#        147139
#        164190
#        178661
#        196924
#        225417
#        243526
#
# Disc length: 3422 seconds
#
# Revision: 0
# Processed by: cddbd v1.5.2PL0 Copyright (c) Steve Scherf et al.
# Submitted via: ExactAudioCopy v1.0b3
#
DISCID=bb0d5c0f
DTITLE=Billy's Band - Когда был один
DYEAR=2013
DGENRE=
TTITLE0=Поваляемся
TTITLE1=Пробитая шина
TTITLE2=Абажур
TTITLE3=На дне
TTITLE4=Лили Марлен (перевод И. Бродского)
TTITLE5=Сначала в бездну свалился стул (И. Бродский)
TTITLE6=Звоночек
TTITLE7=Quaque (instrumental)
TTITLE8=Когда был один
TTITLE9=Stay In Line
TTITLE10=Давай станцуем
TTITLE11=Zabbie Yai (scat)
TTITLE12=Завтра
TTITLE13=Поваляемся (поп-версия)
TTITLE14=Silent Night (traditional)
EXTD=
EXTT0=
EXTT1=
EXTT2=
EXTT3=
EXTT4=
EXTT5=
EXTT6=
EXTT7=
EXTT8=
EXTT9=
EXTT10=
EXTT11=
EXTT12=
EXTT13=
EXTT14=
PLAYORDER=
